<?xml version="1.0" encoding="UTF-8" standalone="no"?> <svg width="64" height="64" viewBox="0 0 64 64" fill="none" xmlns="http://www.w3.org/2000/svg">
<path d="M32 28C30.9391 28 29.9217 28.4214 29.1716 29.1716C28.4214 29.9217 28 30.9391 28 32C28 33.0609 28.4214 34.0783 29.1716 34.8284C29.9217 35.5786 30.9391 36 32 36C33.0609 36 34.0783 35.5786 34.8284 34.8284C35.5786 34.0783 36 33.0609 36 32C36 30.9391 35.5786 29.9217 34.8284 29.1716C34.0783 28.4214 33.0609 28 32 28V28Z" fill="black"/>
<path d="M35.3501 24.83C35.1793 24.7536 34.9936 24.7161 34.8065 24.7204C34.6194 24.7247 34.4356 24.7707 34.2684 24.8549C34.1013 24.9391 33.955 25.0595 33.8402 25.2073C33.7255 25.3551 33.645 25.5267 33.6048 25.7095C33.5646 25.8923 33.5657 26.0817 33.6078 26.264C33.65 26.4464 33.7323 26.617 33.8487 26.7636C33.965 26.9102 34.1126 27.029 34.2807 27.1114C34.4487 27.1938 34.633 27.2377 34.8201 27.24C35.1099 27.2435 35.392 27.1471 35.6189 26.9669C35.8459 26.7867 36.0038 26.5337 36.066 26.2507C36.1283 25.9677 36.0911 25.6719 35.9607 25.4131C35.8302 25.1543 35.6146 24.9484 35.3501 24.83V24.83Z" fill="black"/>
<path d="M38.7901 28.59C38.4897 28.4611 38.1509 28.454 37.8454 28.5702C37.5399 28.6863 37.2914 28.9167 37.1526 29.2126C37.0137 29.5085 36.9953 29.8468 37.1011 30.1561C37.207 30.4653 37.429 30.7213 37.7201 30.87C38.0205 30.9989 38.3592 31.006 38.6647 30.8899C38.9703 30.7737 39.2187 30.5433 39.3576 30.2474C39.4964 29.9515 39.5149 29.6132 39.409 29.304C39.3031 28.9947 39.0812 28.7387 38.7901 28.59V28.59Z" fill="black"/>
<path d="M38.5601 33.67C38.3724 33.5861 38.167 33.5493 37.9618 33.563C37.7566 33.5766 37.5579 33.6403 37.383 33.7484C37.208 33.8566 37.0623 34.0059 36.9583 34.1833C36.8544 34.3608 36.7955 34.5609 36.7867 34.7664C36.7779 34.9718 36.8195 35.1763 36.908 35.362C36.9964 35.5476 37.1289 35.7088 37.2939 35.8315C37.459 35.9541 37.6515 36.0345 37.8548 36.0657C38.0581 36.0968 38.2659 36.0777 38.4601 36.01V36.01C38.6947 35.9232 38.8984 35.7689 39.0457 35.5667C39.193 35.3645 39.2773 35.1232 39.2879 34.8733C39.2986 34.6233 39.2352 34.3758 39.1057 34.1617C38.9763 33.9477 38.7864 33.7766 38.5601 33.67Z" fill="black"/>
<path d="M34.8 37.11C34.4963 36.9694 34.1493 36.9553 33.8351 37.0706C33.521 37.1859 33.2656 37.4213 33.125 37.725C32.9845 38.0287 32.9703 38.3757 33.0856 38.6899C33.2009 39.004 33.4363 39.2594 33.74 39.4C34.0437 39.5406 34.3908 39.5547 34.7049 39.4394C35.019 39.3241 35.2745 39.0887 35.415 38.785C35.5556 38.4813 35.5698 38.1343 35.4544 37.8201C35.3391 37.506 35.1037 37.2506 34.8 37.11V37.11Z" fill="black"/>
<path d="M29.72 36.88C29.4933 36.7826 29.2432 36.7527 28.9999 36.7941C28.7566 36.8355 28.5304 36.9464 28.3487 37.1134C28.1669 37.2803 28.0373 37.4963 27.9754 37.7352C27.9136 37.9741 27.9221 38.2258 28 38.46V38.46C29 40.62 31.78 38.1 29.72 36.88Z" fill="black"/>
<path d="M26.2801 33.1301C25.9797 33.0012 25.6409 32.994 25.3354 33.1102C25.0299 33.2264 24.7814 33.4567 24.6426 33.7527C24.5037 34.0486 24.4852 34.3869 24.5911 34.6961C24.697 35.0054 24.919 35.2614 25.2101 35.4101C25.5104 35.539 25.8492 35.5461 26.1547 35.4299C26.4602 35.3137 26.7087 35.0834 26.8476 34.7875C26.9864 34.4915 27.0049 34.1532 26.899 33.844C26.7931 33.5347 26.5712 33.2787 26.2801 33.1301V33.1301Z" fill="black"/>
<path d="M25.5401 28C25.2258 28.1141 24.9697 28.3483 24.8281 28.6512C24.6865 28.954 24.671 29.3008 24.7851 29.615C24.8991 29.9293 25.1333 30.1854 25.4362 30.327C25.7391 30.4686 26.0858 30.4841 26.4001 30.37C26.7144 30.256 26.9705 30.0218 27.1121 29.7189C27.2536 29.416 27.2691 29.0693 27.1551 28.755C27.041 28.4408 26.8068 28.1847 26.5039 28.0431C26.2011 27.9015 25.8544 27.886 25.5401 28V28Z" fill="black"/>
<path d="M29.2001 26.89C29.3505 26.9596 29.5131 26.9989 29.6786 27.0057C29.8442 27.0124 30.0094 26.9865 30.165 26.9294C30.3205 26.8723 30.4633 26.7851 30.5851 26.6728C30.707 26.5605 30.8055 26.4254 30.8751 26.275C30.9447 26.1246 30.984 25.962 30.9908 25.7965C30.9975 25.6309 30.9716 25.4657 30.9145 25.3101C30.8574 25.1546 30.7702 25.0118 30.6579 24.89C30.5456 24.7681 30.4105 24.6696 30.2601 24.6C29.9564 24.4594 29.6094 24.4453 29.2952 24.5606C28.9811 24.6759 28.7257 24.9113 28.5851 25.215C28.4445 25.5187 28.4304 25.8657 28.5457 26.1799C28.661 26.494 28.8964 26.7494 29.2001 26.89V26.89Z" fill="black"/>
<path d="M61.0001 32C61.0144 31.8382 60.9891 31.6753 60.9264 31.5255C60.8637 31.3757 60.7654 31.2433 60.6401 31.14C61.2301 30.54 60.8201 29.56 60.8301 28.82C60.8136 28.6752 60.7657 28.5357 60.6897 28.4113C60.6137 28.287 60.5114 28.1807 60.3901 28.1C60.9101 27.44 60.3901 26.51 60.3301 25.77C60.2989 25.628 60.2371 25.4944 60.149 25.3787C60.0609 25.263 59.9487 25.1679 59.8201 25.1C60.2601 24.39 59.6601 23.53 59.5001 22.8C59.4546 22.6633 59.3801 22.538 59.2818 22.4327C59.1834 22.3274 59.0634 22.2446 58.9301 22.19C59.2901 21.44 58.6001 20.64 58.3701 19.93C58.3088 19.7991 58.2198 19.683 58.1093 19.5898C57.9988 19.4966 57.8694 19.4284 57.7301 19.39C58.0101 18.6 57.2501 17.88 56.9401 17.21C56.8657 17.0836 56.7645 16.975 56.6435 16.8921C56.5225 16.8091 56.3848 16.7538 56.2401 16.73C56.4401 15.92 55.6001 15.29 55.2401 14.64C55.1522 14.5254 55.0405 14.4312 54.9128 14.3639C54.7851 14.2966 54.6442 14.2577 54.5001 14.25C54.6101 13.41 53.7101 12.88 53.2601 12.25C53.1623 12.1444 53.0429 12.0612 52.91 12.0059C52.7771 11.9507 52.6339 11.9248 52.4901 11.93C52.4901 11.09 51.5501 10.65 51.0501 10.1C50.9399 10.0051 50.8103 9.93533 50.6704 9.89561C50.5305 9.85588 50.3837 9.84715 50.2401 9.87002C50.2338 9.72411 50.1956 9.58135 50.1282 9.45178C50.0608 9.32221 49.9659 9.20897 49.8501 9.12002C49.2201 8.73002 48.6001 7.87002 47.7901 8.06002C47.6101 7.24002 46.5801 7.00002 46.0001 6.58002C45.8728 6.50953 45.7318 6.46764 45.5867 6.45728C45.4416 6.44692 45.296 6.46833 45.1601 6.52002C44.9201 5.72002 43.8801 5.60002 43.2201 5.24002C43.0884 5.1791 42.9451 5.14754 42.8001 5.14754C42.655 5.14754 42.5117 5.1791 42.3801 5.24002C42.0001 4.49002 41.0001 4.49002 40.2801 4.20002C40.1413 4.15874 39.9952 4.14809 39.8519 4.16881C39.7086 4.18952 39.5715 4.24112 39.4501 4.32002C39.0001 3.59002 38.0001 3.69002 37.2801 3.48002C37.1363 3.45293 36.9884 3.45769 36.8467 3.49398C36.7051 3.53026 36.5731 3.59718 36.4601 3.69002C36.0001 3.00002 35.0001 3.22002 34.2201 3.08002C34.0745 3.06932 33.9283 3.09064 33.7918 3.14247C33.6553 3.1943 33.5319 3.27538 33.4301 3.38002C33.1101 2.93002 32.5001 3.00002 32.0001 3.00002C31.5001 3.00002 30.7501 2.89002 30.3801 3.39002C29.7701 2.81002 28.8101 3.25002 28.0601 3.27002C27.9161 3.289 27.7781 3.33908 27.6555 3.41679C27.5329 3.4945 27.4286 3.59797 27.3501 3.72002C26.6801 3.22002 25.7701 3.72002 25.0301 3.84002C24.8898 3.87603 24.759 3.94207 24.6468 4.03358C24.5346 4.12509 24.4436 4.23988 24.3801 4.37002C23.6501 3.94002 22.8001 4.56002 22.0801 4.74002C21.9432 4.78885 21.8186 4.86694 21.715 4.96883C21.6114 5.07073 21.5312 5.19398 21.4801 5.33002C20.7201 5.00002 20.0001 5.70002 19.2501 6.00002C19.1199 6.06353 19.0051 6.15454 18.9136 6.26677C18.8221 6.379 18.7561 6.50976 18.7201 6.65002C17.9201 6.39002 17.2301 7.17002 16.5601 7.50002C16.4373 7.5765 16.3326 7.67868 16.2532 7.79953C16.1738 7.92038 16.1216 8.05702 16.1001 8.20002C15.2801 8.00002 14.6701 8.83002 14.0001 9.23002C13.8861 9.31995 13.793 9.43362 13.7274 9.56314C13.6618 9.69266 13.6252 9.83491 13.6201 9.98002C13.4757 9.95849 13.3284 9.96882 13.1885 10.0103C13.0485 10.0517 12.9194 10.1233 12.8101 10.22C12.3101 10.77 11.3601 11.22 11.3801 12.05C11.2355 12.0461 11.0918 12.0735 10.9588 12.1305C10.8259 12.1875 10.7069 12.2726 10.6101 12.38C10.1701 12.98 9.26006 13.52 9.38006 14.38C9.23506 14.3889 9.09375 14.4293 8.96595 14.4984C8.83816 14.5675 8.72695 14.6636 8.64006 14.78C8.27006 15.43 7.43006 16.07 7.64006 16.88C6.82006 17.05 6.64006 18.09 6.20006 18.71C6.13914 18.8417 6.10758 18.985 6.10758 19.13C6.10758 19.2751 6.13914 19.4184 6.20006 19.55C5.40006 19.81 5.31006 20.86 4.96006 21.55C4.89914 21.6817 4.86758 21.825 4.86758 21.97C4.86758 22.1151 4.89914 22.2584 4.96006 22.39C4.20006 22.73 4.22006 23.78 3.96006 24.48C3.92166 24.6202 3.9143 24.7671 3.93848 24.9105C3.96265 25.0538 4.0178 25.1902 4.10006 25.31C3.38006 25.74 3.51006 26.78 3.31006 27.5C3.28719 27.6436 3.29592 27.7905 3.33565 27.9304C3.37537 28.0703 3.44513 28.1998 3.54006 28.31C2.87006 28.81 3.12006 29.83 3.00006 30.57C2.99212 30.7147 3.01573 30.8594 3.06926 30.9941C3.12279 31.1288 3.20495 31.2502 3.31006 31.35C2.70006 31.92 3.04006 32.91 3.00006 33.65C3.00755 33.7967 3.04727 33.94 3.1164 34.0696C3.18554 34.1993 3.28239 34.3121 3.40006 34.4C2.84006 35.02 3.30006 35.98 3.33006 36.72C3.3527 36.8639 3.40649 37.0011 3.48768 37.122C3.56886 37.2429 3.67547 37.3446 3.80006 37.42C3.32006 38.1 3.87006 39 3.99006 39.74C4.02846 39.8794 4.09662 40.0088 4.18984 40.1193C4.28307 40.2297 4.39914 40.3187 4.53006 40.38C4.12006 41.11 4.77006 41.94 4.96006 42.66C5.01347 42.7952 5.09571 42.9172 5.20106 43.0173C5.30641 43.1175 5.43233 43.1935 5.57006 43.24C5.24006 44.01 5.97006 44.77 6.24006 45.47C6.30793 45.5986 6.40305 45.7109 6.51876 45.799C6.63448 45.8871 6.76801 45.9488 6.91006 45.98C6.67006 46.78 7.47006 47.45 7.81006 48.12C7.89075 48.2414 7.997 48.3437 8.12138 48.4197C8.24575 48.4957 8.38523 48.5436 8.53006 48.56C8.38006 49.38 9.25006 49.97 9.66006 50.56C9.753 50.6716 9.86913 50.7616 10.0004 50.8238C10.1316 50.886 10.2748 50.9188 10.4201 50.92C10.3501 51.75 11.2801 52.25 11.7501 52.82C11.8548 52.9224 11.9807 53.0006 12.1189 53.049C12.2572 53.0973 12.4043 53.1148 12.5501 53.1C12.5474 53.2454 12.5764 53.3895 12.6351 53.5225C12.6938 53.6555 12.7808 53.7741 12.8901 53.87C13.5001 54.29 14.0701 55.18 14.8901 55.04C14.9901 55.88 16.0101 56.16 16.5901 56.63C16.7143 56.7071 16.8538 56.7559 16.999 56.7732C17.1441 56.7905 17.2912 56.7757 17.4301 56.73C17.6201 57.55 18.6601 57.73 19.3001 58.12C19.4317 58.1809 19.575 58.2125 19.7201 58.2125C19.8651 58.2125 20.0084 58.1809 20.1401 58.12C20.4201 58.91 21.4701 58.97 22.1401 59.3C22.2753 59.3487 22.4195 59.3676 22.5627 59.3555C22.7059 59.3435 22.8449 59.3006 22.9701 59.23C23.3401 59.98 24.3901 59.93 25.0901 60.23C25.249 60.2691 25.4151 60.2685 25.5737 60.2284C25.7324 60.1883 25.8788 60.1099 26.0001 60C26.4401 60.72 27.4701 60.55 28.2101 60.73C28.3536 60.7487 28.4994 60.736 28.6375 60.6929C28.7756 60.6497 28.9027 60.5771 29.0101 60.48C29.5201 61.14 30.5301 60.87 31.2801 60.97C31.4246 60.974 31.5683 60.9465 31.7013 60.8895C31.8342 60.8326 31.9532 60.7474 32.0501 60.64C32.6301 61.24 33.6201 60.86 34.3601 60.89C34.505 60.8773 34.6453 60.8332 34.7714 60.7606C34.8975 60.6881 35.0062 60.5889 35.0901 60.47C35.7401 61.01 36.6801 60.54 37.4201 60.47C37.5621 60.4424 37.6965 60.3843 37.8139 60.2997C37.9313 60.2151 38.0289 60.106 38.1001 59.98C38.8001 60.45 39.6801 59.87 40.4201 59.74C40.5595 59.6982 40.6881 59.6264 40.7969 59.5296C40.9058 59.4329 40.9921 59.3136 41.0501 59.18C41.7901 59.57 42.6001 58.9 43.3201 58.69C43.4526 58.6332 43.5712 58.5483 43.6679 58.4413C43.7646 58.3343 43.8369 58.2076 43.8801 58.07C44.6601 58.37 45.4001 57.62 46.0901 57.34C46.2161 57.2689 46.3251 57.1712 46.4097 57.0538C46.4943 56.9364 46.5524 56.8021 46.5801 56.66C47.3901 56.88 48.0401 56.06 48.7001 55.66C48.8071 55.582 48.8976 55.4835 48.9663 55.3702C49.035 55.2569 49.0804 55.131 49.1001 55C49.9201 55.14 50.4901 54.25 51.1001 53.82C51.2093 53.7241 51.2963 53.6055 51.355 53.4725C51.4137 53.3395 51.4428 53.1954 51.4401 53.05C52.2801 53.1 52.7401 52.16 53.3101 51.67C53.4089 51.5636 53.4834 51.4368 53.5283 51.2987C53.5732 51.1605 53.5874 51.0142 53.5701 50.87C54.4001 50.87 54.7701 49.87 55.2801 49.3C55.3674 49.1825 55.4279 49.0473 55.4573 48.9039C55.4867 48.7605 55.4842 48.6124 55.4501 48.47C55.5949 48.4536 55.7344 48.4057 55.8587 48.3297C55.9831 48.2537 56.0894 48.1514 56.1701 48.03C56.5101 47.37 57.3201 46.69 57.0701 45.89C57.8801 45.67 58.0701 44.63 58.4201 43.98C58.481 43.8484 58.5125 43.7051 58.5125 43.56C58.5125 43.415 58.481 43.2717 58.4201 43.14C59.2001 42.84 59.2401 41.79 59.5501 41.14C59.5957 41.0034 59.6114 40.8584 59.5958 40.7152C59.5803 40.5719 59.534 40.4337 59.4601 40.31C60.2001 39.92 60.1301 38.88 60.3601 38.17C60.3913 38.0285 60.3914 37.8818 60.3603 37.7402C60.3292 37.5986 60.2677 37.4655 60.1801 37.35C60.8801 36.88 60.6901 35.85 60.8501 35.12C60.8661 34.975 60.8503 34.8283 60.8036 34.6901C60.757 34.5519 60.6807 34.4256 60.5801 34.32C61.2201 33.74 60.9201 32.75 61.0001 32ZM45.0001 16.19C46.0341 17.034 46.9851 17.975 47.8401 19C45.0001 22.45 40.0001 25.1 39.5801 24.42C38.9001 24 41.5601 19.05 45.0501 16.17L45.0001 16.19ZM30.0001 11.59C31.3102 11.4603 32.6299 11.4603 33.9401 11.59C34.3601 16.13 32.7601 21.46 31.9401 21.3C31.2101 21.43 29.6101 16.11 30.0001 11.57V11.59ZM19.0001 16.16C22.4901 19.05 25.1501 24 24.4701 24.42C24.0501 25.1 19.1001 22.42 16.2101 18.95C17.0531 17.937 17.987 17.0031 19.0001 16.16V16.16ZM11.5701 34C11.4404 32.6899 11.4404 31.3701 11.5701 30.06C16.1101 29.64 21.4401 31.24 21.2801 32.06C21.4301 32.79 16.1101 34.39 11.5701 34ZM20.0001 46.83C19.6401 47.18 19.2901 47.52 18.9301 47.83C17.917 46.987 16.9831 46.0531 16.1401 45.04C19.0301 41.54 23.9901 38.89 24.4001 39.57C24.7901 40 23.8401 43 20.0001 46.83ZM34.0001 52.43C32.6899 52.5597 31.3702 52.5597 30.0601 52.43C29.6401 47.89 31.2401 42.56 32.0601 42.72C32.7901 42.57 34.3901 47.89 34.0001 52.43ZM45.0801 47.84C41.5601 45 38.9001 40 39.5801 39.58C40.0001 38.9 44.9501 41.58 47.8401 45.05C46.997 46.0631 46.0631 46.997 45.0501 47.84H45.0801ZM49.0801 43.41C38.7001 32.29 32.3301 38.69 43.4401 49.05C41.1895 50.561 38.6601 51.6081 36.0001 52.13C36.5301 36.92 27.4901 36.93 28.0001 52.13C25.3469 51.6056 22.8247 50.5586 20.5801 49.05C31.7101 38.67 25.3201 32.3 15.0001 43.41C13.475 41.1724 12.411 38.6534 11.8701 36C27.0801 36.53 27.0701 27.49 11.8701 28C12.411 25.3467 13.475 22.8277 15.0001 20.59C24.7401 31.29 32.1701 25.92 20.6401 14.95C22.8666 13.4487 25.3678 12.402 28.0001 11.87C27.4701 27.08 36.5101 27.07 36.0001 11.87C38.6534 12.411 41.1724 13.475 43.4101 15C31.8701 26 39.3301 31.32 49.0501 20.64C50.5514 22.8666 51.5981 25.3678 52.1301 28C36.9201 27.47 36.9301 36.51 52.1301 36C51.6044 38.6497 50.5574 41.1684 49.0501 43.41H49.0801ZM52.4301 34C47.8901 34.42 42.5601 32.82 42.7201 32C42.5701 31.21 47.8901 29.61 52.4301 30C52.5637 31.33 52.5637 32.67 52.4301 34V34Z" fill="black"/>
</svg>
